{"asset":{"version":"2.0","generator":"VECTARY"},"nodes":[{"translation":[0,0,0],"scale":[1,1,1],"rotation":[0,0,0,1],"name":"treasure_lambert1_0","mesh":0},{"translation":[-7.5569192535529925,38.3708809265278,44.64258781745845],"scale":[1.0000000000000002,1.0000000000000002,1],"rotation":[-0.2786360192939472,-0.0043380017044423735,-0.0012585807495098522,0.9603861548709105],"name":"Camera","camera":0}],"materials":[{"pbrMetallicRoughness":{"baseColorFactor":[1,1,1,1],"baseColorTexture":{"index":0,"extensions":{"KHR_texture_transform":{"offset":[0,0],"scale":[1,1],"rotation":0}},"texCoord":0},"metallicRoughnessTexture":{"index":2,"extensions":{"KHR_texture_transform":{"offset":[0,0],"scale":[1,1],"rotation":0}},"texCoord":0},"metallicFactor":1,"roughnessFactor":1},"name":"lambert1","normalTexture":{"index":1,"scale":1,"extensions":{"KHR_texture_transform":{"offset":[0,0],"scale":[1,1],"rotation":0}},"texCoord":0},"emissiveFactor":[0,0,0],"extensions":{},"alphaMode":"OPAQUE","doubleSided":true}],"textures":[{"sampler":0,"source":0},{"sampler":0,"source":1},{"sampler":0,"source":2}],"images":[{"uri":"lambert1_baseColor.jpg","mimeType":"image/jpeg"},{"uri":"lambert1_normal.jpg","mimeType":"image/jpeg"},{"uri":"lambert1_metallicRoughness.jpg","mimeType":"image/jpeg"}],"samplers":[{"wrapS":10497,"wrapT":10497}],"meshes":[{"primitives":[{"mode":4,"attributes":{"POSITION":1,"NORMAL":2,"TEXCOORD_0":3},"material":0,"indices":0}]}],"accessors":[{"bufferView":0,"byteOffset":0,"componentType":5125,"count":106761,"type":"SCALAR"},{"bufferView":1,"byteOffset":0,"componentType":5126,"count":29005,"max":[7.379939079284668,14.599835395812988,6.21749210357666],"min":[-7.379939079284668,-5.960464477539063e-8,-6.21749210357666],"type":"VEC3"},{"bufferView":2,"byteOffset":0,"componentType":5126,"count":29005,"type":"VEC3"},{"bufferView":3,"byteOffset":0,"componentType":5126,"count":29005,"type":"VEC2"}],"bufferViews":[{"buffer":0,"byteOffset":0,"byteLength":427044,"target":34963},{"buffer":0,"byteOffset":427044,"byteLength":348060,"target":34962},{"buffer":0,"byteOffset":775104,"byteLength":348060,"target":34962},{"buffer":0,"byteOffset":1123164,"byteLength":232040,"target":34962}],"cameras":[{"name":"Camera","type":"perspective","extras":{"targetDistance":55.33866244710346},"perspective":{"aspectRatio":1.4699886749716875,"yfov":0.6108652381980153,"zfar":2123.041477137645,"znear":0.1760295903003404}}],"scene":0,"scenes":[{"nodes":[0,1],"name":"ProjectName"}],"extensionsUsed":["KHR_texture_transform"],"buffers":[{"byteLength":1355204,"uri":"ProjectName.bin"}]}